<?xml version="1.0" encoding="iso-8859-1"?>
<!-- Generator: Adobe Illustrator 19.0.0, SVG Export Plug-In . SVG Version: 6.00 Build 0)  -->
<svg version="1.1" id="Capa_1" xmlns="http://www.w3.org/2000/svg" xmlns:xlink="http://www.w3.org/1999/xlink" x="0px" y="0px"
	 viewBox="0 0 120 120" style="enable-background:new 0 0 120 120;" xml:space="preserve">
<g id="_x30_604-pizza-slice">
	<g>
		<path style="fill-rule:evenodd;clip-rule:evenodd;" d="M116.498,14.747c-0.576-1.025-1.384-1.819-1.922-2.884
			c-1.291-1.032-2.693-1.953-4.085-2.884c-0.868-0.093-1.603-0.319-2.163-0.721h-4.806c-0.968-0.233-1.354-1.05-1.923-1.682
			c-0.606-0.595-1.458-0.945-1.922-1.683C96.62,3.466,93.932,1.67,90.066,1.05c-0.454,0.054-0.53-0.271-0.961-0.239
			C84.5,0.61,80.39,0.906,77.33,2.251c-0.719,0.564-1.611,0.952-2.403,1.442c-0.835,0.447-1.113,1.449-2.163,1.682
			c-3.952-3.817-9.706-5.832-18.022-5.287c-3.489,0.516-6.644,1.365-9.372,2.645c-0.672,0.69-1.715,1.008-2.402,1.682
			c-0.979,0.464-1.228,1.656-2.403,1.922c-0.972-1.03-2.539-1.464-4.085-1.922c-0.918-0.203-1.837-0.406-2.884-0.481
			c-2.108-0.025-3.674,0.491-5.526,0.721c-1.329,0.834-2.816,1.51-4.326,2.163c-0.339,0.701-1.319,0.762-1.922,1.201
			C20.963,8.283,20.6,9.041,19.659,9.22c-0.507,0.856-1.474,1.251-2.163,1.923c-0.656,0.705-0.867,1.856-1.923,2.162
			c-4.024-0.826-7.607,0.67-10.093,2.163c-1.867,2.618-2.97,6.001-2.643,10.813c0.357,0.363,0.387,1.055,0.481,1.681
			c0.384,0.338,0.614,0.828,0.721,1.443c0.578,0.864,1.071,1.812,1.681,2.643c0.671,0.771,1.305,1.578,2.163,2.162
			c0.696,0.826,1.281,1.764,2.644,1.922c0.687,0.515,2.627,0.234,3.364,0c3.731,7.164,7.406,14.382,11.054,21.628
			c1.229,1.882,2.126,4.284,3.124,6.008c0.288,0.499,0.533,0.795,0.721,1.2c0.345,0.746,0.595,1.479,0.961,2.163
			c0.262,0.488,0.716,0.742,0.962,1.202c0.428,0.801,0.71,1.845,0.961,2.403c0.039,0.086,0.426,0.137,0.48,0.239
			c0.441,0.821,0.703,1.832,0.961,2.403c0.039,0.086,0.426,0.137,0.48,0.241c0.485,0.9,0.683,1.917,1.201,2.883
			c0.077,0.143,0.368,0.285,0.481,0.48c0.427,0.737,0.777,1.435,0.961,2.162c0.76,0.603,1.081,1.644,1.442,2.645
			c0.646,0.715,1.153,1.569,1.441,2.642c1.321,1.402,1.784,3.662,3.124,5.047c0.204,1.156,0.996,1.727,1.201,2.883
			c0.916,0.446,0.766,1.958,1.683,2.404c0.791,1.932,1.755,3.69,2.883,5.285c0.845,1.88,1.733,3.715,2.884,5.287
			c0.76,1.963,1.87,3.578,3.124,5.047c0.471,0.891,1.04,1.684,1.441,2.643c0.33,1.032,1.142,1.582,1.443,2.644
			c1.373,1.43,1.962,3.645,4.325,4.085c0.547,0.686,1.408-0.338,2.403,0c0.842-0.118,1.564-0.358,2.644-0.24
			c2.596-2.449,4.164-5.928,6.247-8.891c1.879-3.248,4.295-5.958,5.528-9.853c1.897-3.149,3.032-7.061,4.325-10.813
			c1.717-3.41,3.271-6.98,5.046-10.333c3.616-6.557,7.046-13.3,10.093-20.426c0.958-1.524,1.362-3.604,2.403-5.046
			c0.634-1.93,1.76-3.366,2.403-5.286c1.414-3.713,2.938-7.313,3.364-12.015c1.079-1.886,1.782-4.146,2.643-6.248
			c1.689-0.074,2.574-0.951,3.845-1.442c2.172-2.313,4.243-4.727,5.047-8.41v-3.846C116.829,16.339,116.753,15.454,116.498,14.747z
			 M55.223,103.177c-0.499-0.703-0.541-1.861-1.202-2.402c0.022-0.78,1.433-0.169,1.202-1.201c0.054-0.455-0.271-0.53-0.241-0.962
			c-0.78-0.14-1.118,0.164-1.682,0.241c-0.622-1.222-1.213-2.474-1.683-3.846c1.616-0.787,3.136-1.67,5.527-1.682
			c1.027,0.655,1.601,1.764,2.403,2.644c-0.111,1.17,0.251,2.814-0.24,3.604h-0.241C58.405,101.393,57.185,102.656,55.223,103.177z
			 M83.577,76.504c-0.124,1.157-0.678,1.885-1.201,2.643c-0.304,1.06-0.74,1.984-1.201,2.884c-0.524,0.758-0.654,1.91-1.443,2.403
			c-0.934-0.106-0.983-1.098-1.441-1.681c-0.388-0.574-0.383-1.54-0.721-2.162c0.166-1.689-0.406-2.638-0.24-4.326
			c0.086-0.168,0.391-0.336,0.479-0.48c0.363-0.584,0.821-1.242,1.683-1.683c1.337-0.682,3.816-1.149,5.527-0.239
			C84.602,74.805,84.16,75.725,83.577,76.504z M94.871,53.676c-2.426,5.824-5.598,10.901-7.93,16.82
			c-0.989-0.371-1.71-1.014-3.124-0.961c-4.265-0.037-7.273,2.014-8.891,5.047c-0.933,1.747-1.389,3.432-1.201,6.487
			c0.322,1.28,0.56,2.644,1.201,3.604c0.375,0.746,0.982,1.261,1.441,1.923c0.479,0.643,1.729,0.514,1.923,1.441
			c-4.986,9.192-9.349,19.006-15.139,27.394c-1.85-0.715-2.43-2.698-3.604-4.085c-0.744-1.82-1.845-3.281-2.643-5.047
			c0.095-0.865,1.189-0.733,1.681-1.201c0.472-0.409,1.201-0.561,1.442-1.201c1.116-0.646,1.705-1.818,2.402-2.885
			c0.221-1.292,0.525-4.779,0-6.246c-0.062-0.176-0.415-0.575-0.48-0.723c-0.149-0.332-0.061-0.633-0.24-0.961
			c-0.056-0.102-0.442-0.154-0.48-0.239c-0.053-0.116,0.075-0.382,0-0.481c-0.704-0.93-1.927-1.438-2.644-2.162
			c-2.863-1.15-6.5-0.501-8.891,0.721c-2.443-4.766-5.059-9.359-7.209-14.418c-0.988-2.615-2.269-4.939-3.364-7.449
			c-0.557-1.286-1.366-2.318-1.922-3.605c-0.824-0.938-1.244-2.281-2.163-3.124c-1.061-2.544-2.581-4.629-4.085-6.729
			c-1.382-2.222-2.614-4.594-3.845-6.969c-2.272-4.857-4.634-9.625-6.969-14.418c0.039-1.001,1.244-0.838,1.682-1.441
			c0.623-0.338,1.11-0.813,1.683-1.201c1.583-1.221,2.742-2.865,4.325-4.086c1.241-1.562,2.349-3.258,4.085-4.325
			c4.361,0.604,7.031,2.9,11.534,3.364h2.884c5.079-0.688,7.448-4.086,11.774-5.527c1.989-0.146,2.803,0.883,4.325,1.202
			c1.331,0.511,2.622,1.062,3.846,1.683c2.708,0.416,6.065,0.181,9.131,0.239c2.868-0.495,3.896-2.831,7.449-2.643
			c1.992,0.651,3.293,1.993,4.325,3.604c1.374,1.27,2.56,2.727,3.845,4.085c1.08,0.442,1.941,1.103,2.884,1.683
			c1.159,0.122,1.864,0.698,3.364,0.48c0.6,0.762,1.147,1.576,1.682,2.402c0.861,0.422,1.841,0.725,2.403,1.441
			C100.499,42.643,97.66,48.134,94.871,53.676z M113.135,20.033c-0.358,2.045-1.517,3.291-2.403,4.807
			c-1.92,1.284-3.126,3.282-6.248,3.363c-0.827,0.742,0.541,1.468,0,1.923c-1.017,0.265-1.376,1.188-2.644,1.202
			c-1.827-0.496-2.347-2.299-3.604-3.365c-1.193-0.328-1.767-1.277-3.124-1.441c-0.812-0.711-1.689-1.355-2.644-1.922
			c-0.943-1.141-1.941-2.225-2.884-3.365c-0.874-0.567-1.706-1.177-2.403-1.922c-0.926-0.516-1.972-0.912-2.883-1.441h-4.086
			c-0.907,0.454-2.106,0.618-2.643,1.441c-1.003,0.279-1.793,0.771-2.644,1.202c-1.207,0.157-1.939-0.303-2.644,0
			c-0.871,0.23-0.244-1.038-0.721-1.202c-0.067-0.494-0.642-0.479-0.961-0.721c-1.07-0.029-0.914,1.169-1.442,1.682
			c-0.966-0.154-1.646-0.596-1.441-1.922c0.174-0.734-0.246-0.876-0.24-1.442c0.21-0.771-0.623-0.497-0.721-0.961
			c-0.93-0.208-0.855,0.587-1.442,0.722c-0.005,0.716,0.022,1.463-0.721,1.441c-1.186-0.096-0.562-2.002-0.721-3.125
			c0.059-1.26,0.09-2.492-0.962-2.642c-2.362-0.04-1.266,3.381-1.922,5.047c-2.419-0.412,0.465-4.906-1.441-5.527
			c-1.309-0.027-1.647,0.917-1.683,2.162c-0.537,0.104-0.097,1.186-0.24,1.684c-0.531,0.029-0.103,1.018-0.24,1.44
			c-4.656,0.952-6.737,4.478-11.294,5.528h-3.604c-4.186-0.732-6.986-3.194-12.015-2.404c-1.292,0.391-2.488,0.875-3.363,1.682
			c-1.289,1.196-2.708,2.26-3.604,3.846c-1.114-0.568-0.707-2.657-2.163-2.884c-2.502,0.945,0.694,4.485-0.721,5.768
			c-1.684-0.479-0.416-3.909-2.643-3.845c-1.327,0.075-0.941,1.885-0.721,2.884c0.045,1.016,1.095,1.97,0.48,2.884
			c-1.838-1.207-0.568-5.52-2.403-6.728c-0.953,0.008-0.995,0.927-1.441,1.441c-0.144,1.266,0.178,2.065,0.24,3.124
			c-0.236,1.049,0.875,1.992,0.24,2.643c-0.836-0.125-0.629-1.294-0.961-1.922c-0.238-0.642-0.496-1.267-0.48-2.163
			c-0.803-1.039,0.13-3.814-1.442-4.085c-1.13-0.169-0.725,1.197-1.201,1.683c-0.082,1.764,0.193,3.171,0.481,4.565
			c-1.023-0.578-1.221-1.983-1.682-3.124c-0.426-1.177-0.684-2.52-0.722-4.086c0.076-1.124,0.514-1.889,0.722-2.883
			c0.423-0.217,0.744-0.537,0.961-0.961c1.405-0.574,3.606-0.604,5.286-0.24c0.525,0.596,1.314,0.93,1.923,1.441
			c1.604-0.077,3.773,0.41,4.085-0.961c0.161-1.524-0.941-1.783-1.201-2.884c1.898-2.107,4.066-3.943,7.449-4.566h4.565
			c1.879,0.306,3.062,1.061,4.566,1.924c0.763,0.437,1.436,1.386,2.644,1.2c1.282-0.159,1.617-1.265,1.441-2.883
			c2.145-0.1,2.698-1.787,4.085-2.644c1.134-1.029,2.659-1.667,4.086-2.403c3.309-1.097,7.427-1.383,12.015-1.201
			c3.555,0.609,6.211,2.119,8.65,3.846c1.115,1.047,1.395,2.93,3.845,2.643c1.072-0.311,1.761-1.668,1.202-2.884
			c3.126-2.239,7.693-3.04,13.216-2.884c2.527,0.293,4.884,1.44,6.969,2.403c0.373,0.173,0.758,0.444,1.202,0.722
			c0.188,0.117,0.499,0.095,0.721,0.239c0.361,0.236,0.577,0.664,0.961,0.961c0.669,0.519,0.94,0.679,1.442,1.202
			c0.144,0.15,0.369,0.699,0.721,0.961c0.38,1.623,0.037,3.968,1.682,4.326c2.719,0.235,2.697-2.269,3.124-4.326
			c4.019-0.254,5.763,1.767,7.69,3.606c0.162,0.638,0.379,1.223,0.722,1.682V20.033z M48.013,32.529
			c0.257,0.229,0.573,0.694,0.722,0.961c0.183,0.331,0.248,0.817,0.48,1.202c0.368,0.608,1.021,1.232,1.441,1.922
			c0.216,0.353,0.244,0.812,0.48,1.202c0.189,0.309,0.479,0.604,0.721,0.961c0.443,0.653,0.842,1.451,1.443,1.922
			c0.265,0.209,0.863,0.312,1.201,0.48c0.414,0.206,0.675,0.698,1.202,0.481c1.658-0.825,3.728-1.239,4.806-2.645
			c-0.367-2.997-2.638-4.09-3.604-6.487c-1.678-1.685-2.476-4.254-4.086-6.008c-0.848-0.42-1.976-0.189-2.883,0
			c-1.026,0.736-1.82,1.705-2.403,2.884C47.66,30.479,48.256,31.085,48.013,32.529z M51.618,29.165
			c0.802,1.417,1.592,2.867,2.403,4.325c0.792,1.423,1.526,2.94,2.644,4.086c-0.107,0.692-1.034,0.567-1.202,1.201
			c-1.358-1.044-1.842-2.964-3.124-4.085c-0.315-0.886-0.798-1.605-1.441-2.163c-0.192-1.009-1.287-1.117-1.441-2.163
			C50.214,30.005,50.483,29.152,51.618,29.165z M77.81,31.328c0.36-0.521,1.203-0.559,1.202-1.441
			c-0.836-1.327-1.545-2.782-3.845-2.645c-0.245,0.316-0.235,0.887-0.481,1.202C75.351,29.781,75.954,31.182,77.81,31.328z
			 M69.16,30.126c-0.925-1.444-3.527-0.364-3.364,1.442C66.794,32.81,69.007,31.791,69.16,30.126z M38.642,39.738
			c0.578-0.303,0.483-1.277,0.961-1.683c0.403-3.606-0.859-5.549-2.402-7.208c-0.614-0.027-0.842-0.441-1.202-0.722
			c-0.282-0.037-0.682,0.042-0.721-0.239h-2.163c-1.173,0.588-2.123,1.4-2.162,3.123c-0.098,1.219,0.485,1.757,0.961,2.403
			c0.398,0.803,0.803,1.599,1.201,2.403c0.921,1.4,1.642,3.002,4.086,2.883C37.653,40.351,38.449,40.346,38.642,39.738z
			 M36.719,38.296c-1.145-0.297-1.542-1.34-2.162-2.163c-0.354-1.007-1.3-1.424-1.202-2.883c-0.175-0.655,0.477-0.484,0.48-0.961
			C36.573,32.346,38.011,35.753,36.719,38.296z M90.546,37.335c-1.185,0.977-2.264,2.062-2.163,4.326
			c0.557,0.403,1.024,0.898,1.923,0.961c1.696-0.596,3.3-3.584,1.683-5.287H90.546z M74.447,40.459
			c-1.861-0.098-3.4,0.124-4.807,0.48c-1.562,0.28-2.507,1.177-3.845,1.683c-1.027,1.216-2.193,2.292-3.123,3.604
			c-0.433,1.384-1.062,3.117-0.481,4.806c0.567,0.074,0.447,0.835,1.201,0.722c0.086,0.635,1.226,0.217,1.442,0.721
			c0.575,0.146,1.744-0.303,1.923,0.24c0.574,0.146,1.743-0.303,1.922,0.239c-1.211,1.519-1.627,5.268-1.201,6.97
			c0.133,0.533,0.229,0.938,0.481,1.201c0.37,0.387,0.782,0.908,0.961,1.201c0.614,0.107,1.104,0.338,1.441,0.721h3.604
			c2.47-1.295,3.998-3.988,3.365-7.689c-0.478-0.403-0.384-1.379-0.962-1.682c-0.054-0.526-1.084-1.294-0.48-1.683
			c1.504,0.179,3.037,0.327,4.807,0.24c1.084-0.917,1.168-2.837,1.201-4.806C81.369,43.148,78.637,41.074,74.447,40.459z
			 M78.772,49.35c-0.492,0.55-2.151-0.068-2.644,0.481c-1.07-0.021-1.489,0.751-2.402,0.239c-0.025,0.616-0.137,1.146-0.481,1.442
			c-0.184,1.305,0.296,1.946,0.239,3.124c0.226,1.057,1.015,1.549,0.962,2.884c-0.357,1.485-0.735,2.951-2.644,2.884
			c-0.039-0.282-0.438-0.203-0.721-0.241c-1.78-2.722,0.346-6.948-0.48-10.093c-0.625-0.495-1.733-0.509-2.884-0.479
			c-0.792-0.329-1.922-0.321-2.884-0.481c0.881-2.403,2.992-3.576,5.046-4.806c1.594-0.329,3.606-0.238,5.527-0.24
			c0.038,0.281,0.439,0.203,0.721,0.24c0.583,0.54,1.317,0.925,1.923,1.442C78.295,46.943,78.886,47.793,78.772,49.35z
			 M30.471,44.544c0.324,1.099,3.142,1.443,3.364,0C33.933,42.791,30.441,43.01,30.471,44.544z M52.819,53.676
			c-0.014-0.093-0.205-0.195-0.239-0.48c-0.103-0.851-0.279-0.928-0.481-1.441c-0.147-0.376-0.119-0.591-0.241-0.962
			c-0.302-0.098-0.49-0.309-0.48-0.722c-1.412-1.23-2.867-2.419-5.046-2.883H44.65c-0.147,0.014-0.285,0.036-0.241,0.24
			c-2.992,0.532-5.154,1.895-6.969,3.604c-0.576,1.266-1.309,2.376-1.441,4.085c0.21,4.596,2.696,6.916,6.008,8.41
			c2.862,0.715,6.156-0.043,8.17-0.961C52.056,61,53.332,57.127,52.819,53.676z M48.735,58.723
			c-0.544,0.257-1.058,0.544-1.442,0.961c-0.341-0.02-0.68-0.04-0.721,0.24c-1.108-0.014-2.35,0.105-3.124-0.24
			c-1.045-0.076-1.521-0.723-2.403-0.961c-0.304-0.819-0.544-1.7-0.721-2.645c0.341-1.661,1.08-2.925,1.441-4.566
			c0.872-0.569,2.041-0.844,3.124-1.201c1.273,0.088,2.154,0.569,3.124,0.961c0.243,0.477,0.416,1.026,0.962,1.202
			c0.277,1.003,0.6,1.963,0.721,3.123C49.608,56.872,49.125,57.751,48.735,58.723z M89.585,51.032
			c0.396,0.995,2.054,1.509,2.884,0.722C92.637,50.298,89.722,49.33,89.585,51.032z M46.331,51.993c-0.354,0.35-0.354,1.573,0,1.923
			h0.961c0.353-0.35,0.353-1.573,0-1.923H46.331z M43.207,53.916c0.032,0.769,0.545,1.058,1.442,0.961
			C45.294,53.876,43.84,52.968,43.207,53.916z M46.812,57.521v-1.202C44.715,55.153,44.897,58.594,46.812,57.521z M85.74,64.729
			c1.885,0.07,1.623-2.811,0.721-3.604C83.952,60.433,84.032,64.538,85.74,64.729z M67.238,69.055
			c0.24-0.32,0.395-0.725,0.721-0.961c0.035-1.236-0.476-1.928-0.961-2.644c-1.994-0.925-3.33,0.803-2.644,2.644
			C65.181,68.548,65.87,69.14,67.238,69.055z M41.526,67.373c-0.182-0.624-1.35-0.984-1.923-0.48
			c0.037,1.633,1.761,3.363,3.124,2.162C42.682,68.139,42.385,67.474,41.526,67.373z M61.71,68.815
			c-0.428-0.133-0.997-0.124-1.201-0.48c-1.789-0.188-2.632,0.572-4.085,0.721c-0.397,0.645-1.22,0.863-1.683,1.441
			c-0.816,0.306-0.91,1.333-1.923,1.443c-0.631-1.131-1.631-1.893-3.123-2.163c-0.865-0.064-1.158,0.444-1.923,0.481
			c-1.115,1.208-1.722,2.925-1.922,5.047c0.678,4.849,2.045,9.008,6.487,10.092c1.435,0.237,2.379-0.406,2.885-0.721
			c1.585-0.985,3.053-2.707,3.123-4.805c0.085-1.287-0.667-1.736-0.961-2.645c2.505-1.018,5.028-2.019,5.768-4.806
			C63.329,70.561,62.478,69.729,61.71,68.815z M58.346,74.342c-1.23,0.292-2.635,0.409-3.364,1.201
			c0.065,0.815-0.186,1.947,0.241,2.403c0.23,0.649,0.389,1.373,0.72,1.923c-0.526,0.995-1.148,1.896-2.402,2.161
			c-3.534-0.659-5.773-4.809-4.325-8.891c1.97-0.208,1.996,1.528,3.604,1.683c1.006,0.203,0.952-0.651,1.442-0.961
			c0.558-0.164,0.644-0.799,1.201-0.961c0.747-0.777,1.781-1.264,2.644-1.924c1.273-0.039,2.014-0.436,2.643,0.481
			C60.787,73.258,59.066,73.299,58.346,74.342z M79.973,76.504c0.548,0.067,0.903-0.058,0.961-0.48
			c-0.343-0.057-0.405-0.396-0.721-0.48C80.138,75.867,79.871,76.002,79.973,76.504z M79.493,78.186
			c-0.363,0.34-0.759,1.168-0.24,1.684c0.897,0.096,1.41-0.193,1.442-0.962C80.322,78.639,80.194,78.126,79.493,78.186z
			 M66.516,80.59c-0.427-0.214-0.61-0.672-1.441-0.481c-1.044,0.798-2.635,1.049-2.644,2.884c0.472,0.709,2.16,0.616,2.403-0.24
			C65.807,82.442,66.637,81.991,66.516,80.59z M68.679,84.193h-0.24c-1.237,1.246-2.627,2.339-2.884,4.566
			c0.486,1.756,1.293,3.192,2.163,4.565c0.179,0.943,0.938,1.305,1.201,2.163c0.694,0.427,0.789,1.453,1.923,1.441
			c2.033-0.529,3.364-1.763,4.085-3.605c0.041-0.602-0.369-0.752-0.721-0.962c0.139-0.779-0.164-1.117-0.241-1.682
			c-0.854-1.067-1.643-2.201-2.402-3.364C70.554,86.324,70.489,84.387,68.679,84.193z M71.563,94.286
			c-0.525-0.035-0.516-0.605-0.481-1.202c-0.969-1.434-2.282-2.523-3.364-3.844c-0.203-1.084,0.562-1.2,0.721-1.923
			c0.316,0.085,0.377,0.423,0.721,0.481c0.76,1.963,1.929,3.518,3.364,4.806C72.478,93.44,71.674,93.517,71.563,94.286z
			 M55.943,94.768c-0.592-0.033-1.157-0.037-1.441,0.239c-0.076,0.558,0.039,0.923,0.24,1.201c0.593,0.032,1.158,0.036,1.442-0.239
			C56.382,95.289,55.845,95.346,55.943,94.768z M57.625,98.131c-0.194,0.046-0.239,0.241-0.481,0.24
			c-0.363,1.357,1.098,1.791,1.922,1.202C59.055,98.623,58.574,98.144,57.625,98.131z M60.749,105.821
			c0.251,1.097,1.615,2.138,2.884,1.44C64.688,105.695,61.285,103.602,60.749,105.821z"/>
	</g>
</g>
<g>
</g>
<g>
</g>
<g>
</g>
<g>
</g>
<g>
</g>
<g>
</g>
<g>
</g>
<g>
</g>
<g>
</g>
<g>
</g>
<g>
</g>
<g>
</g>
<g>
</g>
<g>
</g>
<g>
</g>
</svg>
