<?xml version="1.0" ?><svg id="Layer_1" style="enable-background:new 0 0 128 128;" version="1.1" viewBox="0 0 128 128" fill="#fff" xml:space="preserve" xmlns="http://www.w3.org/2000/svg" xmlns:xlink="http://www.w3.org/1999/xlink"><g><path d="M97.8,15C79.1-3.6,48.9-3.6,30.2,15c-18.6,18.6-18.6,48.9,0,67.6L64,115.6l33.7-33.1l0,0C116.4,63.9,116.4,33.6,97.8,15z    M92.1,76.8L64,104.4L35.9,76.9c-7.5-7.5-11.6-17.5-11.6-28.1s4.1-20.6,11.6-28.1S53.4,9,64,9s20.6,4.1,28.1,11.6   s11.6,17.5,11.6,28.1C103.8,59.4,99.6,69.3,92.1,76.8z"/><path d="M64,28.3c-11.3,0-20.4,9.2-20.4,20.4S52.7,69.2,64,69.2S84.4,60,84.4,48.8S75.3,28.3,64,28.3z M64,61.2   c-6.8,0-12.4-5.6-12.4-12.4S57.2,36.3,64,36.3s12.4,5.6,12.4,12.4S70.8,61.2,64,61.2z"/><rect height="8" width="74" x="27" y="119"/></g></svg>